<svg xmlns="http://www.w3.org/2000/svg" viewBox="0 0 3232 839"><g transform="scale(1.37)"><rect width="515" height="515" x="50" y="50" fill="#2A4b7A" rx="50" ry="50"></rect><path fill="#FCFCFD" d="M386 150h40v314h-40V321H228v143h-39V151h39v135h158z"></path></g><path fill="#333" d="M1263 603V416h-233v187h-43V195h43v181h232V195h43v408h-43zm236-160h77v-19c0-44-25-67-71-67-23 0-42 7-53 18s-18 24-20 38l-39-8c0-14 14-42 39-62 17-13 44-23 74-23 51 0 85 19 101 58a114 114 0 0 1 9 46v78c0 46 1 81 4 101h-40a275 275 0 0 1-4-48c-24 35-54 53-94 53-27 0-50-8-67-23a75 75 0 0 1-27-59v-3c0-60 61-80 111-80zm77 43v-10h-78a103 103 0 0 0-45 10 39 39 0 0 0-24 37c0 15 6 27 18 36a66 66 0 0 0 42 14c25 0 46-9 62-25a84 84 0 0 0 25-62m369 117h-41V442c0-26-6-46-19-62-13-15-32-23-57-23-24 0-44 8-60 25a90 90 0 0 0-23 63v158h-41V325h40v51c22-37 54-56 96-56 33 0 59 10 78 30 18 21 27 48 27 81zm307-4v-58c-25 43-61 63-107 63a125 125 0 0 1-115-71 157 157 0 0 1-16-70c0-25 5-48 16-70a136 136 0 0 1 46-52 117 117 0 0 1 69-21 117 117 0 0 1 66 20 162 162 0 0 1 42 43v-58h40v272c0 47-13 84-39 108-26 25-62 38-106 38-35 0-64-10-88-28s-40-41-45-68l37-12a93 93 0 0 0 95 72c30 0 54-8 74-25 19-16 31-45 31-83zm-99-30c29 0 52-10 71-32 19-20 29-46 29-75 1-54-44-107-100-106-30 0-54 11-71 31-18 20-26 46-26 76-2 57 37 106 97 106m252-209h-53v-35h54v-51c0-32 7-55 23-72 15-16 36-24 62-24 10 0 20 2 30 5v34a97 97 0 0 0-29-3 47 47 0 0 0-31 11c-9 8-15 25-15 48v52h169v278h-41V360h-128v243h-41V360zm168-113c-6-6-9-13-9-22s3-15 9-21 13-9 21-9 17 3 22 9c6 6 9 13 9 21s-3 16-9 22c-5 6-13 9-22 9s-15-3-21-9m134 78h40v55a108 108 0 0 1 57-54 94 94 0 0 1 46-4v43l-16-1c-66 0-86 54-86 103v136h-41V325zm444 152h-225a97 97 0 0 0 31 68 95 95 0 0 0 68 27c42 0 74-21 87-59l35 11c-7 26-23 47-45 62a137 137 0 0 1-76 22 139 139 0 0 1-123-72 144 144 0 0 1-18-72c0-25 5-49 17-71a131 131 0 0 1 49-53 126 126 0 0 1 69-20c28 0 52 6 72 19a113 113 0 0 1 45 51c10 21 14 45 14 73v14m-225-35h184a103 103 0 0 0-28-63 84 84 0 0 0-62-23c-24 0-44 8-62 25a103 103 0 0 0-32 61"></path></svg>